<svg width="512" height="512" viewBox="0 0 512 512" fill="none" xmlns="http://www.w3.org/2000/svg">
<path d="M402.245 0H329.122H182.878H109.755C69.2436 0 33.7598 21.9798 14.7969 54.734C0.574662 79.156 18.2447 109.755 46.5455 109.755C59.6184 109.755 71.6857 102.716 78.294 91.367C84.615 80.5926 96.3951 73.266 109.755 73.266H182.878H329.122H402.245C422.357 73.266 438.734 89.6431 438.734 109.755C438.734 129.868 422.357 146.245 402.245 146.245H329.122H256H182.878H109.755C69.2436 146.245 33.7598 168.224 14.7969 200.979C0.574662 225.401 18.2447 256 46.5455 256C59.6184 256 71.6857 248.961 78.294 237.612C84.615 226.837 96.3951 219.511 109.755 219.511H182.878H256C276.112 219.511 292.489 235.888 292.489 256C292.489 276.112 276.112 292.489 256 292.489H109.755C49.275 292.489 0 341.764 0 402.245C0 462.725 49.275 512 109.755 512C170.236 512 219.511 462.725 219.511 402.245C219.511 389.459 217.356 377.248 213.19 365.755H256C316.48 365.755 365.755 316.48 365.755 256C365.755 243.214 363.6 231.003 359.434 219.511H402.101C462.581 219.511 511.856 170.236 511.856 109.755C512 49.275 462.725 0 402.245 0ZM146.245 402.245C146.245 422.357 129.868 438.734 109.755 438.734C89.6431 438.734 73.266 422.357 73.266 402.245C73.266 382.132 89.6431 365.755 109.755 365.755C129.868 365.755 146.245 382.132 146.245 402.245Z" fill="#74C7EC"/>
<path d="M109.755 512C49.275 512 0 462.725 0 402.245C0 341.764 49.275 292.489 109.755 292.489C170.236 292.489 219.511 341.764 219.511 402.245C219.511 462.725 170.236 512 109.755 512ZM109.755 365.755C89.6431 365.755 73.266 382.132 73.266 402.245C73.266 422.357 89.6431 438.734 109.755 438.734C129.868 438.734 146.245 422.357 146.245 402.245C146.245 382.132 129.868 365.755 109.755 365.755Z" fill="#94E2D5"/>
<path d="M402.245 219.511H329.123V146.245H402.245C422.357 146.245 438.734 129.868 438.734 109.755C438.734 89.6431 422.357 73.266 402.245 73.266H329.123V0H402.245C462.725 0 512 49.275 512 109.755C512 170.236 462.725 219.511 402.245 219.511Z" fill="url(#paint0_linear_328_295)"/>
<path d="M329.122 0H182.877V73.266H329.122V0Z" fill="#CBA6F7"/>
<path d="M329.122 146.244H182.877V219.51H329.122V146.244Z" fill="url(#paint1_linear_328_295)"/>
<path d="M46.5455 109.755C18.2447 109.755 0.57469 79.156 14.7969 54.734C33.7599 21.9798 69.2436 0 109.755 0H182.878V73.266H109.755C96.3951 73.266 84.6151 80.5926 78.2941 91.367C71.6858 102.716 59.6185 109.755 46.5455 109.755Z" fill="#CBA6F7"/>
<path d="M256 365.755H109.755V292.489H256C276.112 292.489 292.489 276.112 292.489 255.999C292.489 235.887 276.112 219.51 256 219.51H182.878V146.244H256C316.48 146.244 365.755 195.519 365.755 255.999C365.755 316.48 316.48 365.755 256 365.755Z" fill="url(#paint2_linear_328_295)"/>
<path d="M46.5455 255.999C18.2447 255.999 0.57469 225.4 14.7969 200.978C33.7599 168.224 69.2436 146.244 109.755 146.244H182.878V219.51H109.755C96.3951 219.51 84.6151 226.837 78.2941 237.611C71.6858 248.96 59.6185 255.999 46.5455 255.999Z" fill="#74C7EC"/>
<defs>
<linearGradient id="paint0_linear_328_295" x1="345.004" y1="168.544" x2="407.554" y2="90.3567" gradientUnits="userSpaceOnUse">
<stop stop-color="#74C7EC"/>
<stop offset="0.6229" stop-color="#CBA6F7"/>
</linearGradient>
<linearGradient id="paint1_linear_328_295" x1="297.722" y1="130.719" x2="360.273" y2="52.5312" gradientUnits="userSpaceOnUse">
<stop stop-color="#74C7EC"/>
<stop offset="1" stop-color="#CBA6F7"/>
</linearGradient>
<linearGradient id="paint2_linear_328_295" x1="239.8" y1="276.412" x2="212.434" y2="324.628" gradientUnits="userSpaceOnUse">
<stop stop-color="#74C7EC"/>
<stop offset="1" stop-color="#94E2D5"/>
</linearGradient>
</defs>
</svg>
