<svg width="544" height="154" viewBox="0 0 544 154" fill="none" xmlns="http://www.w3.org/2000/svg">
<path d="M183.6 119.9V32.8999H241.9V49.3999H203.2V67.5999H237.6V83.9999H203.2V119.9H183.6Z" fill="white"/>
<path d="M280.7 121.2C275.3 121.1 270.8 120.5 267.5 119.4C264.2 118.3 261.4 116.8 259.5 114.8C257.5 112.8 256.2 110.4 255.5 107.6C254.8 104.8 254.4 101.6 254.4 98.0999V25.3999L273.1 22.3999V94.3999C273.1 96.0999 273.2 97.5999 273.5 98.8999C273.8 100.2 274.2 101.4 274.9 102.3C275.6 103.2 276.6 104 278 104.6C279.3 105.2 281.1 105.6 283.4 105.7L280.7 121.2Z" fill="white"/>
<path d="M355.8 86.7997C355.8 91.9997 355 96.6997 353.5 101.1C352 105.4 349.8 109.1 347 112.2C344.2 115.3 340.7 117.6 336.8 119.3C332.8 121 328.4 121.8 323.4 121.8C318.5 121.8 314.1 121 310.2 119.3C306.2 117.6 302.8 115.3 300 112.2C297.2 109.1 294.9 105.5 293.3 101.1C291.7 96.7997 290.9 91.9997 290.9 86.7997C290.9 81.5997 291.7 76.8997 293.3 72.5997C294.9 68.2997 297.2 64.6997 300.1 61.6997C303 58.6997 306.4 56.2997 310.4 54.6997C314.4 52.9997 318.7 52.1997 323.4 52.1997C328.2 52.1997 332.5 52.9997 336.5 54.6997C340.5 56.3997 343.9 58.6997 346.7 61.6997C349.5 64.6997 351.8 68.3997 353.4 72.5997C355 76.7997 355.8 81.5997 355.8 86.7997ZM336.8 86.7997C336.8 80.9997 335.6 76.4997 333.3 73.1997C331 69.8997 327.7 68.1997 323.4 68.1997C319.1 68.1997 315.8 69.8997 313.5 73.1997C311.2 76.4997 310 80.9997 310 86.7997C310 92.5997 311.2 97.1997 313.5 100.6C315.8 104 319.2 105.7 323.4 105.7C327.6 105.7 331 104 333.3 100.6C335.6 97.0997 336.8 92.4997 336.8 86.7997Z" fill="white"/>
<path d="M369.7 37.3999L388.4 34.3999V53.8999H410.9V69.4999H388.4V92.6999C388.4 96.5999 389.1 99.7999 390.5 102.1C391.9 104.4 394.7 105.6 398.9 105.6C400.9 105.6 403 105.4 405.1 105C407.2 104.6 409.2 104.1 410.9 103.4L413.5 118C411.2 118.9 408.7 119.7 406 120.4C403.2 121.1 399.8 121.4 395.8 121.4C390.7 121.4 386.5 120.7 383.1 119.3C379.8 117.9 377.1 116 375.1 113.5C373.1 111 371.7 108 370.9 104.5C370.1 101 369.7 97.0999 369.7 92.7999V37.3999Z" fill="white"/>
<path d="M420.4 87.4C420.4 81.5 421.3 76.4 423.1 72C424.9 67.6 427.3 63.9 430.2 61C433.1 58.1 436.5 55.9 440.3 54.3C444.1 52.8 448 52 452 52C461.4 52 468.8 54.9 474.2 60.6C479.6 66.3 482.4 74.8 482.4 85.9C482.4 87 482.4 88.2 482.3 89.5C482.2 90.8 482.1 91.9 482 93H439.6C440 96.9 441.8 99.9 445 102.2C448.2 104.5 452.5 105.6 457.8 105.6C461.2 105.6 464.6 105.3 467.9 104.7C471.2 104.1 473.9 103.3 476 102.4L478.5 117.6C477.5 118.1 476.2 118.6 474.5 119.1C472.8 119.6 471 120 468.9 120.4C466.8 120.8 464.7 121.1 462.3 121.3C460 121.6 457.6 121.7 455.3 121.7C449.4 121.7 444.2 120.8 439.8 119.1C435.4 117.3 431.8 114.9 428.9 111.9C426 108.8 423.9 105.2 422.5 101C421.1 96.8 420.4 92.2 420.4 87.4ZM464.3 80.2C464.2 78.6 463.9 77.1 463.5 75.6C463 74.1 462.3 72.8 461.4 71.6C460.4 70.4 459.2 69.5 457.8 68.7C456.3 67.9 454.5 67.6 452.3 67.6C450.2 67.6 448.4 68 446.9 68.7C445.4 69.4 444.1 70.4 443.1 71.5C442.1 72.7 441.3 74 440.8 75.6C440.3 77.1 439.9 78.7 439.6 80.3H464.3V80.2Z" fill="white"/>
<path d="M515.8 106.5C519.2 106.5 521.7 106.2 523.1 105.5C524.5 104.8 525.2 103.5 525.2 101.6C525.2 100.1 524.3 98.8001 522.4 97.6001C520.6 96.5001 517.8 95.2001 514 93.8001C511.1 92.7001 508.4 91.6001 506 90.4001C503.6 89.2001 501.6 87.8001 499.9 86.2001C498.2 84.6001 496.9 82.6001 496 80.4001C495.1 78.1001 494.6 75.4001 494.6 72.2001C494.6 66.0001 496.9 61.1001 501.5 57.5001C506.1 53.9001 512.4 52.1001 520.5 52.1001C524.5 52.1001 528.4 52.5001 532.1 53.2001C535.8 53.9001 538.7 54.7001 540.9 55.5001L537.6 70.1001C535.4 69.3001 533.1 68.7001 530.5 68.1001C527.9 67.5001 525.1 67.2001 521.9 67.2001C516 67.2001 513.1 68.8001 513.1 72.1001C513.1 72.9001 513.2 73.5001 513.5 74.1001C513.8 74.7001 514.3 75.3001 515 75.8001C515.8 76.3001 516.8 76.9001 518.1 77.6001C519.4 78.2001 521.1 78.9001 523.1 79.7001C527.2 81.2001 530.6 82.7001 533.3 84.2001C536 85.7001 538.1 87.3001 539.6 89.0001C541.1 90.7001 542.2 92.6001 542.9 94.7001C543.5 96.8001 543.8 99.2001 543.8 102C543.8 108.5 541.4 113.4 536.5 116.8C531.6 120.1 524.7 121.8 515.7 121.8C509.8 121.8 505 121.3 501.1 120.3C497.2 119.3 494.5 118.5 493 117.8L496.1 102.6C499.3 103.9 502.5 104.8 505.9 105.6C509.2 106.1 512.6 106.5 515.8 106.5Z" fill="white"/>
<path d="M33.0001 153.7C14.9001 153.7 0.100098 139 0.100098 120.8C0.100098 102.7 14.8001 87.8999 33.0001 87.8999C51.1001 87.8999 65.9001 102.6 65.9001 120.8C65.9001 138.9 51.2001 153.7 33.0001 153.7ZM33.0001 109.9C27.0001 109.9 22.1001 114.8 22.1001 120.8C22.1001 126.8 27.0001 131.7 33.0001 131.7C39.0001 131.7 43.9001 126.8 43.9001 120.8C44.0001 114.8 39.1001 109.9 33.0001 109.9Z" fill="#94E2D5"/>
<path d="M120.6 66.1H98.7002V44.2H120.6C126.6 44.2 131.5 39.3 131.5 33.3C131.5 27.3 126.6 22.4 120.6 22.4H98.7002V0.5H120.6C138.7 0.5 153.5 15.2 153.5 33.4C153.5 51.3 138.7 66.1 120.6 66.1Z" fill="url(#paint0_linear_318_8)"/>
<path d="M98.7002 0.299805H54.9001V22.1998H98.7002V0.299805Z" fill="#CBA6F7"/>
<path d="M98.7002 44.0996H54.9001V65.9996H98.7002V44.0996Z" fill="url(#paint1_linear_318_8)"/>
<path d="M14.1001 33.1998C5.60012 33.1998 0.40012 23.9998 4.60012 16.6998C10.3001 6.89983 20.9001 0.299805 33.0001 0.299805H54.9001V22.1998H33.0001C29.0001 22.1998 25.5001 24.3998 23.6001 27.5998C21.6001 31.0998 18.0001 33.1998 14.1001 33.1998Z" fill="#CBA6F7"/>
<path d="M76.8 109.9H33V87.9998H76.8C82.8 87.9998 87.7 83.0998 87.7 77.0998C87.7 71.0998 82.8 66.1998 76.8 66.1998H54.9V44.2998H76.8C94.9 44.2998 109.7 58.9998 109.7 77.1998C109.7 95.0998 95 109.9 76.8 109.9Z" fill="url(#paint2_linear_318_8)"/>
<path d="M14.1001 76.9996C5.60012 76.9996 0.40012 67.7996 4.60012 60.4996C10.3001 50.6996 20.9001 44.0996 33.0001 44.0996H54.9001V65.9996H33.0001C29.0001 65.9996 25.5001 68.1996 23.6001 71.3996C21.6001 74.8996 18.0001 76.9996 14.1001 76.9996Z" fill="#74C7EC"/>
<defs>
<linearGradient id="paint0_linear_318_8" x1="103.485" y1="50.8148" x2="122.213" y2="27.4047" gradientUnits="userSpaceOnUse">
<stop stop-color="#74C7EC"/>
<stop offset="1" stop-color="#CBA6F7"/>
</linearGradient>
<linearGradient id="paint1_linear_318_8" x1="89.3283" y1="39.4893" x2="108.056" y2="16.0791" gradientUnits="userSpaceOnUse">
<stop stop-color="#74C7EC"/>
<stop offset="1" stop-color="#CBA6F7"/>
</linearGradient>
<linearGradient id="paint2_linear_318_8" x1="71.9853" y1="83.1115" x2="63.7917" y2="97.5478" gradientUnits="userSpaceOnUse">
<stop stop-color="#74C7EC"/>
<stop offset="1" stop-color="#94E2D5"/>
</linearGradient>
</defs>
</svg>
