<svg width="544" height="154" viewBox="0 0 544 154" fill="none" xmlns="http://www.w3.org/2000/svg">
<path d="M183.5 119.6V32.6001H241.8V49.1001H203.1V67.3001H237.5V83.7001H203.1V119.6H183.5Z" fill="#E2E2F3"/>
<path d="M280.6 120.9C275.2 120.8 270.7 120.2 267.4 119.1C264.1 118 261.3 116.5 259.4 114.5C257.4 112.5 256.1 110.1 255.4 107.3C254.7 104.5 254.3 101.3 254.3 97.8001V25.1001L273 22.1001V94.1001C273 95.8001 273.1 97.3001 273.4 98.6001C273.7 99.9001 274.1 101.1 274.8 102C275.5 102.9 276.5 103.7 277.9 104.3C279.2 104.9 281 105.3 283.3 105.4L280.6 120.9Z" fill="#E2E2F3"/>
<path d="M355.7 86.5001C355.7 91.7001 354.9 96.4001 353.4 100.8C351.9 105.1 349.7 108.8 346.9 111.9C344.1 115 340.6 117.3 336.7 119C332.7 120.7 328.3 121.5 323.3 121.5C318.4 121.5 314 120.7 310.1 119C306.1 117.3 302.7 115 299.9 111.9C297.1 108.8 294.8 105.2 293.2 100.8C291.6 96.5001 290.8 91.7001 290.8 86.5001C290.8 81.3001 291.6 76.6001 293.2 72.3001C294.8 68.0001 297.1 64.4001 300 61.4001C302.9 58.4001 306.3 56.0001 310.3 54.4001C314.3 52.7001 318.6 51.9001 323.3 51.9001C328.1 51.9001 332.4 52.7001 336.4 54.4001C340.4 56.1001 343.8 58.4001 346.6 61.4001C349.4 64.4001 351.7 68.1001 353.3 72.3001C354.9 76.5001 355.7 81.3001 355.7 86.5001ZM336.7 86.5001C336.7 80.7001 335.5 76.2001 333.2 72.9001C330.9 69.6001 327.6 67.9001 323.3 67.9001C319 67.9001 315.7 69.6001 313.4 72.9001C311.1 76.2001 309.9 80.7001 309.9 86.5001C309.9 92.3001 311.1 96.9001 313.4 100.3C315.7 103.7 319.1 105.4 323.3 105.4C327.5 105.4 330.9 103.7 333.2 100.3C335.5 96.8001 336.7 92.2001 336.7 86.5001Z" fill="#E2E2F3"/>
<path d="M369.6 37.1001L388.3 34.1001V53.6001H410.8V69.2001H388.3V92.4001C388.3 96.3001 389 99.5001 390.4 101.8C391.8 104.1 394.6 105.3 398.8 105.3C400.8 105.3 402.9 105.1 405 104.7C407.1 104.3 409.1 103.8 410.8 103.1L413.4 117.7C411.1 118.6 408.6 119.4 405.9 120.1C403.1 120.8 399.7 121.1 395.7 121.1C390.6 121.1 386.4 120.4 383 119C379.7 117.6 377 115.7 375 113.2C373 110.7 371.6 107.7 370.8 104.2C370 100.7 369.6 96.8001 369.6 92.5001V37.1001V37.1001Z" fill="#E2E2F3"/>
<path d="M420.3 87.1002C420.3 81.2002 421.2 76.1002 423 71.7002C424.8 67.3002 427.2 63.6002 430.1 60.7002C433 57.8002 436.4 55.6002 440.2 54.0002C444 52.5002 447.9 51.7002 451.9 51.7002C461.3 51.7002 468.7 54.6002 474.1 60.3002C479.5 66.0002 482.3 74.5002 482.3 85.6002C482.3 86.7002 482.3 87.9002 482.2 89.2002C482.1 90.5002 482 91.6002 481.9 92.7002H439.5C439.9 96.6002 441.7 99.6002 444.9 101.9C448.1 104.2 452.4 105.3 457.7 105.3C461.1 105.3 464.5 105 467.8 104.4C471.1 103.8 473.8 103 475.9 102.1L478.4 117.3C477.4 117.8 476.1 118.3 474.4 118.8C472.7 119.3 470.9 119.7 468.8 120.1C466.7 120.5 464.6 120.8 462.2 121C459.9 121.3 457.5 121.4 455.2 121.4C449.3 121.4 444.1 120.5 439.7 118.8C435.3 117 431.7 114.6 428.8 111.6C425.9 108.5 423.8 104.9 422.4 100.7C421 96.5002 420.3 91.9002 420.3 87.1002ZM464.2 79.9002C464.1 78.3002 463.8 76.8002 463.4 75.3002C462.9 73.8002 462.2 72.5002 461.3 71.3002C460.3 70.1002 459.1 69.2002 457.7 68.4002C456.2 67.6002 454.4 67.3002 452.2 67.3002C450.1 67.3002 448.3 67.7002 446.8 68.4002C445.3 69.1002 444 70.1002 443 71.2002C442 72.4002 441.2 73.7002 440.7 75.3002C440.2 76.8002 439.8 78.4002 439.5 80.0002H464.2V79.9002Z" fill="#E2E2F3"/>
<path d="M515.7 106.2C519.1 106.2 521.6 105.9 523 105.2C524.4 104.5 525.1 103.2 525.1 101.3C525.1 99.8 524.2 98.5 522.3 97.3C520.5 96.2 517.7 94.9 513.9 93.5C511 92.4 508.3 91.3001 505.9 90.1001C503.5 88.9001 501.5 87.5001 499.8 85.9001C498.1 84.3001 496.8 82.3 495.9 80.1C495 77.8 494.5 75.1001 494.5 71.9001C494.5 65.7001 496.8 60.8 501.4 57.2C506 53.6 512.3 51.8 520.4 51.8C524.4 51.8 528.3 52.2001 532 52.9001C535.7 53.6001 538.6 54.4 540.8 55.2L537.5 69.8C535.3 69 533 68.4 530.4 67.8C527.8 67.2 525 66.9001 521.8 66.9001C515.9 66.9001 513 68.5 513 71.8C513 72.6 513.1 73.2 513.4 73.8C513.7 74.4 514.2 75 514.9 75.5C515.7 76 516.7 76.6 518 77.3C519.3 77.9 521 78.6001 523 79.4001C527.1 80.9001 530.5 82.4001 533.2 83.9001C535.9 85.4001 538 87 539.5 88.7C541 90.4 542.1 92.3001 542.8 94.4001C543.4 96.5001 543.7 98.9 543.7 101.7C543.7 108.2 541.3 113.1 536.4 116.5C531.5 119.8 524.6 121.5 515.6 121.5C509.7 121.5 504.9 121 501 120C497.1 119 494.4 118.2 492.9 117.5L496 102.3C499.2 103.6 502.4 104.5 505.8 105.3C509.1 105.8 512.5 106.2 515.7 106.2Z" fill="#E2E2F3"/>
<path d="M120.5 0H98.6H54.8H32.9C20.8 0 10.2 6.60002 4.5 16.4C0.2 23.7 5.5 32.9 14 32.9C17.9 32.9 21.5 30.8 23.5 27.4C25.4 24.2 28.9 22 32.9 22H54.8H98.6H120.5C126.5 22 131.4 26.9 131.4 32.9C131.4 38.9 126.5 43.8 120.5 43.8H98.6H76.7H54.8H32.9C20.8 43.8 10.2 50.4 4.5 60.2C0.2 67.5 5.5 76.7 14 76.7C17.9 76.7 21.5 74.6 23.5 71.2C25.4 68 28.9 65.8 32.9 65.8H54.8H76.7C82.7 65.8 87.6 70.7 87.6 76.7C87.6 82.7 82.7 87.6 76.7 87.6H32.9C14.8 87.6 0 102.3 0 120.5C0 138.6 14.7 153.4 32.9 153.4C51 153.4 65.8 138.7 65.8 120.5C65.8 116.7 65.1 113 63.9 109.6H76.7C94.8 109.6 109.6 94.9 109.6 76.7C109.6 72.9 108.9 69.2 107.7 65.8H120.5C138.6 65.8 153.4 51.1 153.4 32.9C153.4 14.8 138.6 0 120.5 0ZM43.9 120.5C43.9 126.5 39 131.4 33 131.4C27 131.4 22.1 126.5 22.1 120.5C22.1 114.5 27 109.6 33 109.6C39 109.6 43.9 114.5 43.9 120.5Z" fill="#74C7EC"/>
<path d="M32.9 153.4C14.8 153.4 0 138.7 0 120.5C0 102.4 14.7 87.6001 32.9 87.6001C51 87.6001 65.8 102.3 65.8 120.5C65.8 138.6 51.1 153.4 32.9 153.4ZM32.9 109.6C26.9 109.6 22 114.5 22 120.5C22 126.5 26.9 131.4 32.9 131.4C38.9 131.4 43.8 126.5 43.8 120.5C43.9 114.5 39 109.6 32.9 109.6Z" fill="#94E2D5"/>
<path d="M120.5 65.8H98.5996V43.9H120.5C126.5 43.9 131.4 38.9999 131.4 32.9999C131.4 26.9999 126.5 22.0999 120.5 22.0999H98.5996V0.199951H120.5C138.6 0.199951 153.4 14.8999 153.4 33.0999C153.4 50.9999 138.6 65.8 120.5 65.8Z" fill="url(#paint0_linear_326_56)"/>
<path d="M98.5998 0H54.7998V21.9H98.5998V0Z" fill="#CBA6F7"/>
<path d="M98.5998 43.8H54.7998V65.7H98.5998V43.8Z" fill="url(#paint1_linear_326_56)"/>
<path d="M13.9998 32.9C5.49978 32.9 0.299778 23.7 4.49978 16.4C10.1998 6.60002 20.7998 0 32.8998 0H54.7998V21.9H32.8998C28.8998 21.9 25.3998 24.1 23.4998 27.3C21.4998 30.8 17.8998 32.9 13.9998 32.9Z" fill="#CBA6F7"/>
<path d="M76.7004 109.6H32.9004V87.7H76.7004C82.7004 87.7 87.6004 82.8 87.6004 76.8C87.6004 70.8 82.7004 65.9 76.7004 65.9H54.8004V44H76.7004C94.8004 44 109.6 58.7 109.6 76.9C109.6 94.8 94.9004 109.6 76.7004 109.6Z" fill="url(#paint2_linear_326_56)"/>
<path d="M13.9998 76.7C5.49978 76.7 0.299778 67.5 4.49978 60.2C10.1998 50.4 20.7998 43.8 32.8998 43.8H54.7998V65.7H32.8998C28.8998 65.7 25.3998 67.9 23.4998 71.1C21.4998 74.6 17.8998 76.7 13.9998 76.7Z" fill="#74C7EC"/>
<defs>
<linearGradient id="paint0_linear_326_56" x1="103.384" y1="50.5148" x2="122.112" y2="27.1047" gradientUnits="userSpaceOnUse">
<stop stop-color="#74C7EC"/>
<stop offset="0.7029" stop-color="#CBA6F7"/>
</linearGradient>
<linearGradient id="paint1_linear_326_56" x1="89.2279" y1="39.1898" x2="107.956" y2="15.7795" gradientUnits="userSpaceOnUse">
<stop stop-color="#74C7EC"/>
<stop offset="1" stop-color="#CBA6F7"/>
</linearGradient>
<linearGradient id="paint2_linear_326_56" x1="71.8857" y1="82.8117" x2="63.6921" y2="97.248" gradientUnits="userSpaceOnUse">
<stop stop-color="#74C7EC"/>
<stop offset="1" stop-color="#94E2D5"/>
</linearGradient>
</defs>
</svg>
